<?xml version="1.0" encoding="UTF-8"?>
<!-- Generator: Adobe Illustrator 16.0.3, SVG Export Plug-In . SVG Version: 6.00 Build 0)  -->
<svg xmlns="http://www.w3.org/2000/svg" xmlns:xlink="http://www.w3.org/1999/xlink" version="1.1" id="Capa_1" x="0px" y="0px" width="841.89px" height="190.354px" viewBox="0 0 841.89 190.354" xml:space="preserve">
<g>
	<g>
		<g>
			<g>
				<g>
					<g>
						<defs>
							<polygon id="SVGID_1_" points="11.236,190.354 144.984,190.354 144.984,56.376 11.236,56.376 11.236,190.354        "></polygon>
						</defs>
						<clipPath id="SVGID_2_">
							<use xlink:href="#SVGID_1_" overflow="visible"></use>
						</clipPath>
						<g clip-path="url(#SVGID_2_)">
							<defs>
								<polygon id="SVGID_3_" points="11.236,190.354 144.984,190.354 144.984,56.376 11.236,56.376 11.236,190.354         "></polygon>
							</defs>
							<defs>
								<polygon id="SVGID_4_" points="11.236,56.376 144.984,56.376 144.984,190.354 11.236,190.354 11.236,56.376         "></polygon>
							</defs>
							<clipPath id="SVGID_5_">
								<use xlink:href="#SVGID_3_" overflow="visible"></use>
							</clipPath>
							<clipPath id="SVGID_6_" clip-path="url(#SVGID_5_)">
								<use xlink:href="#SVGID_4_" overflow="visible"></use>
							</clipPath>
							<g clip-path="url(#SVGID_6_)">
								<defs>
									<polygon id="SVGID_7_" points="11.236,190.354 144.984,190.354 144.984,56.376 11.236,56.376 11.236,190.354          "></polygon>
								</defs>
								<clipPath id="SVGID_8_">
									<use xlink:href="#SVGID_7_" overflow="visible"></use>
								</clipPath>
								<g clip-path="url(#SVGID_8_)">
									<defs>
										<polygon id="SVGID_9_" points="12.215,183.048 144.445,183.048 144.445,57.354 12.215,57.354 12.215,189.891                       "></polygon>
									</defs>
									<clipPath id="SVGID_10_">
										<use xlink:href="#SVGID_9_" overflow="visible"></use>
									</clipPath>
									<g clip-path="url(#SVGID_10_)">
										<path fill="#628390" d="M86.387,72.539c0,6.106-4.934,11.046-11.021,11.046c-6.083,0-11.016-4.94-11.016-11.046            c0-6.095,4.932-11.039,11.016-11.039C81.454,61.5,86.387,66.444,86.387,72.539L86.387,72.539z"></path>
									</g>
									<g clip-path="url(#SVGID_10_)">
										<path fill="#628390" d="M102.34,123.441c-0.15-3.56-1.437-6.978-3.664-9.759l-6.23-8.974l-6.885-9.959            c-1.212-1.719-2.326-3.614-3.703-5.229c-1.791-2.083-4.378-3.316-7.12-3.37c-2.495,0.038-4.891,0.947-6.785,2.572            c-2.485,1.765-13.3,9.344-16.18,11.429c-3.379,2.381-4.066,6.727-0.633,9.489c5.346,4.219,10.771,8.459,16.172,12.602            l-6.667,24.851h13.552v31.817h11.021v-31.817h13.178l-1.864-6.987c-0.314-0.952-0.499-1.943-0.555-2.94            c-0.033-1.861,0.911-3.611,2.477-4.612l0,0C100.979,130.203,102.39,126.897,102.34,123.441L102.34,123.441z             M63.55,105.284l3.484-2.367l3.377,7.83l0,0L63.55,105.284L63.55,105.284z"></path>
									</g>
								</g>
							</g>
						</g>
					</g>
				</g>
				<g>
					<path fill="#628390" d="M130.794,171.749h-16.656l23.813-87.833h28.37l23.032,87.833h-19.127l-4.558-19.781h-30.187       L130.794,171.749z M148.233,98.88l-9.626,39.299h23.941l-8.975-39.299H148.233z"></path>
					<path fill="#628390" d="M229.572,173.054c-24.727,0-37.997-16.4-37.997-45.679c0-27.323,13.145-44.761,37.997-44.761       c11.973,0,22.77,2.603,29.927,7.412l-6.503,13.793c-4.557-3.505-12.493-6.111-21.602-6.111       c-14.573,0-21.864,10.28-21.864,29.536c0,20.304,7.292,30.715,21.603,30.715c8.59,0,17.182-3.645,23.165-8.067l5.461,13.793       C251.044,169.669,241.153,173.054,229.572,173.054z"></path>
					<path fill="#628390" d="M345.908,171.749l-1.821-74.171h-0.519c-1.562,9.37-3.124,16.137-4.297,21.214l-12.489,52.957h-25.117       l-11.971-52.957c-1.171-5.077-2.731-11.844-4.425-21.214h-0.521l-1.168,74.171h-15.615l3.383-87.833h29.278       c0,0,9.63,44.243,14.702,72.61h0.395c5.854-28.241,17.305-72.61,17.305-72.61h28.757l3.381,87.833H345.908z"></path>
				</g>
				<g>
					<g>
						<rect x="399.213" y="57.492" fill="#628390" width="5.424" height="119.357"></rect>
					</g>
				</g>
			</g>
		</g>
		<g>
			<path fill="#808080" d="M435.552,105.576v13.35h-3.719V85.911h8.855c6.409,0,11.591,2.689,11.591,9.438     c0,4.748-2.643,7.776-6.653,9.39l7.486,14.187h-4.503l-6.649-13.449c-0.44,0.046-1.373,0.1-1.86,0.1H435.552z M440.147,88.943     h-4.596v13.5h4.596c4.991,0,8.122-2.3,8.122-6.993C448.27,90.659,445.188,88.943,440.147,88.943z"></path>
			<path fill="#808080" d="M458.784,108.02c0,5.917,3.036,8.511,7.581,8.511c3.083,0,5.818-1.419,7.429-2.396l0.933,2.639     c-2.003,1.225-5.141,2.644-8.754,2.644c-6.558,0-10.903-4.354-10.903-12.615c0-7.585,3.715-12.328,10.271-12.328     c6.747,0,9.582,5.425,9.582,11.442v2.104H458.784z M465.188,97.309c-4.547,0-6.403,4.006-6.403,8.122h12.521     C471.305,101.269,469.887,97.309,465.188,97.309z"></path>
			<path fill="#808080" d="M496.398,116.041c-1.375,1.811-4.061,3.375-6.9,3.375c-5.676,0-9.636-4.207-9.636-12.522     c0-7.285,3.618-12.421,10.029-12.421c2.981,0,5.036,0.978,6.411,2.057c-0.15-1.271-0.201-2.5-0.201-3.915V85.18h3.715v33.746     h-2.782L496.398,116.041z M496.102,99.019c-1.124-0.778-3.128-1.71-5.817-1.71c-4.5,0-6.65,3.521-6.65,9.585     c0,5.919,1.903,9.732,6.403,9.732c2.154,0,4.108-0.928,6.064-3.032V99.019z"></path>
			<path fill="#808080" d="M532.835,116.041c-1.376,1.811-4.062,3.375-6.901,3.375c-5.674,0-9.635-4.207-9.635-12.522     c0-7.285,3.621-12.421,10.024-12.421c2.985,0,5.036,0.978,6.411,2.057c-0.15-1.271-0.199-2.5-0.199-3.915V85.18h3.714v33.746     h-2.782L532.835,116.041z M532.535,99.019c-1.127-0.778-3.129-1.71-5.822-1.71c-4.496,0-6.646,3.521-6.646,9.585     c0,5.919,1.903,9.732,6.411,9.732c2.146,0,4.104-0.928,6.058-3.032V99.019z"></path>
			<path fill="#808080" d="M545.641,108.02c0,5.917,3.036,8.511,7.583,8.511c3.079,0,5.822-1.419,7.437-2.396l0.925,2.639     c-2.004,1.225-5.132,2.644-8.75,2.644c-6.553,0-10.908-4.354-10.908-12.615c0-7.585,3.714-12.328,10.272-12.328     c6.746,0,9.585,5.425,9.585,11.442v2.104H545.641z M552.054,97.309c-4.552,0-6.413,4.006-6.413,8.122h12.522     C558.163,101.269,556.745,97.309,552.054,97.309z"></path>
			<path fill="#808080" d="M593.031,118.926l-0.632-3.077c-1.418,1.807-4.008,3.567-7.386,3.567c-4.89,0-7.726-3.274-7.726-7.336     c0-4.153,3.028-6.848,8.461-6.848h6.211v-1.91c0-4.153-1.812-5.915-5.429-5.915c-3.032,0-5.479,0.779-7.239,1.565l-0.982-2.689     c1.911-0.833,4.751-1.811,8.711-1.811c5.673,0,8.557,2.935,8.557,8.653v15.8H593.031z M591.96,107.775h-5.624     c-4.061,0-5.434,1.761-5.434,4.154c0,2.889,1.569,4.797,5.04,4.797c2.35,0,4.596-1.367,6.018-2.986V107.775z"></path>
			<path fill="#808080" d="M616.995,118.926v-14.479c0-4.549-1.413-7.039-5.471-7.039c-2.495,0-4.407,1.417-5.871,2.736v18.782     h-3.718V94.962h2.492l0.732,2.836c1.371-1.422,3.914-3.325,7.527-3.325c5.627,0,8.127,3.375,8.127,9.339v15.114H616.995z"></path>
			<path fill="#808080" d="M646.488,106.894c0,8.072-3.91,12.522-10.317,12.522c-6.507,0-10.226-4.354-10.226-12.522     c0-7.043,3.325-12.421,10.226-12.421C642.817,94.473,646.488,99.754,646.488,106.894z M642.67,106.894     c0-6.257-2.096-9.635-6.499-9.635c-4.503,0-6.461,3.525-6.461,9.635c0,5.873,1.712,9.732,6.461,9.732     C640.813,116.626,642.67,113.301,642.67,106.894z"></path>
			<path fill="#808080" d="M670.743,103.812v15.114h-3.765v-14.479c0-4.549-1.321-7.039-5.382-7.039c-2.544,0-4.3,1.417-5.772,2.736     v18.782h-3.714V94.962h2.442l0.786,2.885c1.364-1.422,3.765-3.375,7.29-3.375c3.568,0,5.863,1.271,7.042,3.667     c1.368-1.518,4.008-3.667,7.483-3.667c5.867,0,8.46,3.274,8.46,9.339v15.114h-3.768v-14.479c0-4.549-1.711-7.039-5.771-7.039     c-2.249,0-4.254,1.319-5.726,2.736C670.65,101.222,670.743,102.443,670.743,103.812z"></path>
			<path fill="#808080" d="M706.25,118.926l-0.636-3.077c-1.422,1.807-4.007,3.567-7.386,3.567c-4.885,0-7.725-3.274-7.725-7.336     c0-4.153,3.032-6.848,8.461-6.848h6.206v-1.91c0-4.153-1.802-5.915-5.425-5.915c-3.035,0-5.475,0.779-7.239,1.565l-0.976-2.689     c1.905-0.833,4.745-1.811,8.704-1.811c5.676,0,8.563,2.935,8.563,8.653v15.8H706.25z M705.171,107.775h-5.617     c-4.061,0-5.433,1.761-5.433,4.154c0,2.889,1.564,4.797,5.041,4.797c2.346,0,4.592-1.367,6.009-2.986V107.775z"></path>
			<path fill="#808080" d="M715.347,112.323V85.18h3.668v28.514c0,2.055,0.929,2.887,3.572,2.887h0.777v2.543     c0,0-1.17,0.293-2.343,0.293C716.472,119.416,715.347,116.826,715.347,112.323z"></path>
			<path fill="#808080" d="M725.715,91.244l-0.539-2.204l10.811-4.007l0.732,2.786L725.715,91.244z M729.922,118.926V97.943     l-2.644-0.536v-2.446h6.265v23.964H729.922z"></path>
			<path fill="#808080" d="M754.911,118.926l-0.632-3.077c-1.422,1.807-4.007,3.567-7.39,3.567c-4.885,0-7.725-3.274-7.725-7.336     c0-4.153,3.032-6.848,8.464-6.848h6.208v-1.91c0-4.153-1.807-5.915-5.429-5.915c-3.031,0-5.479,0.779-7.236,1.565l-0.979-2.689     c1.904-0.833,4.743-1.811,8.704-1.811c5.675,0,8.561,2.935,8.561,8.653v15.8H754.911z M753.837,107.775h-5.629     c-4.054,0-5.425,1.761-5.425,4.154c0,2.889,1.567,4.797,5.039,4.797c2.35,0,4.597-1.367,6.015-2.986V107.775z"></path>
			<path fill="#808080" d="M766.547,100.829c0,5.137,11.89,3.329,11.89,11.443c0,3.869-2.981,7.144-8.314,7.144     c-2.89,0-5.578-1.025-7.239-2.058l1.079-2.736c1.171,0.926,3.765,2.004,6.113,2.004c2.929,0,4.744-1.61,4.744-4.106     c0-5.771-11.74-3.618-11.74-11.736c0-3.233,2.446-6.311,7.925-6.311c2.54,0,5.229,0.489,7.19,1.568l-0.882,2.735     c-1.857-0.979-3.815-1.468-6.263-1.468C768.019,97.309,766.547,98.626,766.547,100.829z"></path>
			<path fill="#808080" d="M449.444,160.956c-1.473,0.832-4.502,2.101-7.976,2.101c-6.066,0-10.467-3.567-10.467-12.468     c0-8.118,4.45-12.476,10.467-12.476c2.738,0,5.675,0.589,7.828,1.907l-1.076,2.643c-1.862-1.078-4.106-1.564-6.556-1.564     c-4.303,0-6.944,3.426-6.944,9.49c0,6.75,2.642,9.586,6.944,9.586c2.79,0,5.185-0.979,6.896-2.008L449.444,160.956z"></path>
			<path fill="#808080" d="M474.041,150.539c0,8.071-3.911,12.518-10.318,12.518c-6.504,0-10.226-4.351-10.226-12.518     c0-7.043,3.333-12.426,10.226-12.426C470.373,138.113,474.041,143.396,474.041,150.539z M470.226,150.539     c0-6.262-2.096-9.637-6.503-9.637c-4.5,0-6.457,3.522-6.457,9.637c0,5.871,1.711,9.731,6.457,9.731     C468.369,160.271,470.226,156.946,470.226,150.539z"></path>
			<path fill="#808080" d="M494.73,162.567v-14.477c0-4.549-1.421-7.045-5.479-7.045c-2.497,0-4.4,1.425-5.872,2.743v18.778h-3.714     v-23.965h2.492l0.736,2.84c1.368-1.422,3.906-3.329,7.529-3.329c5.624,0,8.117,3.375,8.117,9.343v15.111H494.73z"></path>
			<path fill="#808080" d="M525.098,138.603v2.593c-1.37,0.144-3.813-0.149-5.821-0.489c1.615,1.175,3.279,3.083,3.279,5.723     c0,5.674-5.433,8.066-9.047,8.066c-0.933,0-2.057-0.188-3.136-0.535c-1.758,0.146-2.539,0.831-2.539,1.711     c0,2.988,15.7-0.046,15.7,8.514c0,5.576-5.136,8.266-10.272,8.266c-4.692,0-9.535-2.493-9.535-7.094     c0-3.175,2.439-5.132,6.061-5.671c-2.927-0.292-5.374-1.322-5.374-3.622c0-1.661,1.12-2.886,3.617-3.179     c-1.907-1.175-3.668-3.032-3.668-6.456c0-6.262,5.625-8.315,9.097-8.315C515.411,138.113,519.326,138.456,525.098,138.603z      M513.017,160.12c-3.615,0.104-5.722,1.957-5.722,4.844c0,2.981,2.981,4.893,6.068,4.893c3.668,0,6.452-1.664,6.452-5.479     C519.815,161.936,517.813,160.617,513.017,160.12z M519.084,146.382c0-4.45-3.279-5.529-5.625-5.529s-5.676,1.079-5.676,5.529     c0,4.303,3.184,5.424,5.676,5.424C515.902,151.806,519.084,150.685,519.084,146.382z"></path>
			<path fill="#808080" d="M532.53,151.664c0,5.917,3.036,8.511,7.583,8.511c3.086,0,5.817-1.419,7.432-2.4l0.933,2.644     c-2.007,1.225-5.14,2.639-8.762,2.639c-6.55,0-10.899-4.351-10.899-12.618c0-7.582,3.714-12.325,10.268-12.325     c6.75,0,9.587,5.429,9.587,11.447v2.104H532.53z M538.938,140.953c-4.546,0-6.407,4.011-6.407,8.114h12.518     C545.048,144.912,543.634,140.953,538.938,140.953z M533.56,134.889l-0.539-2.204l10.811-4.011l0.731,2.793L533.56,134.889z"></path>
			<path fill="#808080" d="M569.413,162.567v-14.477c0-4.549-1.422-7.045-5.479-7.045c-2.497,0-4.407,1.425-5.872,2.743v18.778     h-3.714v-23.965h2.489l0.735,2.84c1.368-1.422,3.91-3.329,7.533-3.329c5.62,0,8.117,3.375,8.117,9.343v15.111H569.413z"></path>
			<path fill="#808080" d="M581.096,162.567v-20.982l-2.64-0.539v-2.443h6.26v23.965H581.096z M580.756,129.167h3.96v3.911h-3.96     V129.167z"></path>
			<path fill="#808080" d="M599.288,163.057c-3.367,0-6.157-1.711-6.157-7.336v-14.429h-3.621v-2.689h3.621v-4.35l3.719-1.175v5.524     h6.992v2.689h-6.992v14.872c0,2.542,0.928,3.764,3.174,3.764c1.276,0,3.033-0.635,3.818-1.024l0.731,2.739     C603.541,162.274,601.25,163.057,599.288,163.057z"></path>
			<path fill="#808080" d="M623.499,162.567l-0.64-3.078c-1.417,1.811-4.007,3.567-7.382,3.567c-4.885,0-7.729-3.274-7.729-7.336     c0-4.157,3.036-6.847,8.46-6.847h6.211v-1.903c0-4.16-1.807-5.925-5.425-5.925c-3.036,0-5.477,0.784-7.243,1.564l-0.97-2.689     c1.903-0.825,4.738-1.808,8.699-1.808c5.675,0,8.561,2.933,8.561,8.657v15.797H623.499z M622.42,151.417h-5.616     c-4.065,0-5.433,1.761-5.433,4.154c0,2.889,1.563,4.796,5.035,4.796c2.351,0,4.597-1.367,6.014-2.982V151.417z"></path>
			<path fill="#808080" d="M635.143,144.474c0,5.133,11.883,3.33,11.883,11.447c0,3.861-2.987,7.136-8.314,7.136     c-2.891,0-5.58-1.021-7.244-2.055l1.079-2.735c1.171,0.93,3.769,2.004,6.114,2.004c2.932,0,4.742-1.611,4.742-4.106     c0-5.771-11.734-3.622-11.734-11.739c0-3.229,2.443-6.312,7.92-6.312c2.544,0,5.233,0.489,7.19,1.568l-0.879,2.735     c-1.861-0.975-3.813-1.464-6.26-1.464C636.603,140.953,635.143,142.271,635.143,144.474z"></path>
			<path fill="#808080" d="M681.893,147.456v15.111h-3.768v-14.477c0-4.549-1.318-7.045-5.379-7.045     c-2.547,0-4.305,1.425-5.771,2.743v18.778h-3.718v-23.965h2.446l0.778,2.886c1.372-1.422,3.768-3.375,7.29-3.375     c3.575,0,5.872,1.275,7.046,3.668c1.368-1.514,4.007-3.668,7.479-3.668c5.871,0,8.47,3.278,8.47,9.343v15.111h-3.769v-14.477     c0-4.549-1.715-7.045-5.772-7.045c-2.258,0-4.257,1.324-5.725,2.743C681.792,144.866,681.893,146.089,681.893,147.456z"></path>
			<path fill="#808080" d="M717.4,162.567l-0.641-3.078c-1.416,1.811-4.006,3.567-7.381,3.567c-4.894,0-7.729-3.274-7.729-7.336     c0-4.157,3.032-6.847,8.466-6.847h6.207v-1.903c0-4.16-1.808-5.925-5.426-5.925c-3.039,0-5.479,0.784-7.243,1.564l-0.979-2.689     c1.907-0.825,4.747-1.808,8.708-1.808c5.674,0,8.561,2.933,8.561,8.657v15.797H717.4z M716.322,151.417H710.7     c-4.065,0-5.428,1.761-5.428,4.154c0,2.889,1.563,4.796,5.034,4.796c2.348,0,4.597-1.367,6.016-2.982V151.417z"></path>
			<path fill="#808080" d="M734.56,162.421l-2.44,0.197l-7.675-24.016h4.106c0,0,4.5,14.575,6.549,21.765     c2.104-7.239,6.504-21.765,6.504-21.765h3.822l-7.683,23.722c-2.496,7.633-4.989,10.076-9.586,10.076     c-2.007,0-4.354-1.075-5.332-1.903L724.05,168h0.293c0.686,0.538,2.25,1.51,4.008,1.51c2.788,0,4.403-1.656,5.922-6.202     L734.56,162.421z"></path>
			<path fill="#808080" d="M769.047,150.539c0,8.071-3.914,12.518-10.321,12.518c-6.507,0-10.226-4.351-10.226-12.518     c0-7.043,3.329-12.426,10.226-12.426C765.375,138.113,769.047,143.396,769.047,150.539z M765.229,150.539     c0-6.262-2.101-9.637-6.504-9.637c-4.5,0-6.457,3.522-6.457,9.637c0,5.871,1.711,9.731,6.457,9.731     C763.369,160.271,765.229,156.946,765.229,150.539z"></path>
			<path fill="#808080" d="M786.844,141.83c-0.686-0.245-1.761-0.438-3.082-0.438c-2.297,0-4.154,1.317-5.379,2.593v18.583h-3.714     v-23.965h2.493l0.681,3.032c1.028-1.367,3.133-3.371,6.22-3.371c1.757,0,2.831,0.339,3.028,0.389L786.844,141.83z"></path>
			<path fill="#808080" d="M792.957,151.664c0,5.917,3.041,8.511,7.588,8.511c3.074,0,5.817-1.419,7.428-2.4l0.932,2.644     c-2.003,1.225-5.135,2.639-8.753,2.639c-6.558,0-10.904-4.351-10.904-12.618c0-7.582,3.71-12.325,10.265-12.325     c6.75,0,9.594,5.429,9.594,11.447v2.104H792.957z M799.37,140.953c-4.552,0-6.413,4.011-6.413,8.114h12.526     C805.483,144.912,804.066,140.953,799.37,140.953z"></path>
			<path fill="#808080" d="M817.512,144.474c0,5.133,11.887,3.33,11.887,11.447c0,3.861-2.985,7.136-8.315,7.136     c-2.886,0-5.575-1.021-7.234-2.055l1.078-2.735c1.167,0.93,3.764,2.004,6.107,2.004c2.936,0,4.745-1.611,4.745-4.106     c0-5.771-11.734-3.622-11.734-11.739c0-3.229,2.441-6.312,7.921-6.312c2.542,0,5.231,0.489,7.189,1.568l-0.878,2.735     c-1.864-0.975-3.819-1.464-6.262-1.464C818.977,140.953,817.512,142.271,817.512,144.474z"></path>
		</g>
	</g>
	<g>
		<g>
			<rect x="36.059" y="7.199" fill="#1D68A2" width="158.251" height="19.048"></rect>
		</g>
		<g>
			<rect x="194.311" y="7.199" fill="#E83C46" width="228.037" height="19.048"></rect>
		</g>
	</g>
</g>
<g>
</g>
<g>
</g>
<g>
</g>
<g>
</g>
<g>
</g>
<g>
</g>
</svg>