<?xml version="1.0" encoding="utf-8"?>
<!-- Generator: Adobe Illustrator 16.0.3, SVG Export Plug-In . SVG Version: 6.00 Build 0)  -->
<!DOCTYPE svg PUBLIC "-//W3C//DTD SVG 1.1//EN" "http://www.w3.org/Graphics/SVG/1.1/DTD/svg11.dtd">
<svg version="1.1" id="Capa_1" xmlns="http://www.w3.org/2000/svg" xmlns:xlink="http://www.w3.org/1999/xlink" x="0px" y="0px"
	 width="320.881px" height="293.532px" viewBox="0 0 320.881 293.532" enable-background="new 0 0 320.881 293.532"
	 xml:space="preserve">
<g>
	<path fill="#342F30" d="M156.351,273.012c-1.871,0.884-3.43,1.276-5.176,1.276c-4.15,0-6.098-2.915-6.098-7.31
		c0-4.209,2.09-7.062,6.428-7.062c2.115,0,3.467,0.513,4.555,1.231l-1.15,2.034c-0.777-0.516-1.949-0.885-3.385-0.885
		c-2.484,0-3.613,1.887-3.613,4.639c0,3.267,1.189,5.052,3.531,5.052c0.902,0,1.764-0.185,2.42-0.492v-2.544h-1.91l-0.145-1.997
		h4.543V273.012z"/>
	<path fill="#342F30" d="M167.57,269.034c0,3.426-1.73,5.254-4.727,5.254c-3.018,0-4.725-1.808-4.725-5.254
		c0-2.959,1.646-5.218,4.725-5.218C165.882,263.816,167.57,266.075,167.57,269.034 M164.814,269.034
		c0-2.423-0.719-3.269-1.971-3.269s-1.949,0.864-1.949,3.269c0,2.341,0.635,3.28,1.949,3.28S164.814,271.436,164.814,269.034"/>
	<path fill="#342F30" d="M172.068,265.047c0.453-0.614,1.535-1.231,2.666-1.231c2.365,0,4.066,1.686,4.066,5.218
		c0,3.469-2.053,5.256-4.396,5.256c-1.436,0-2.273-0.557-2.914-1.421l-0.492,1.213h-1.434v-14.163h2.688v3.509L172.068,265.047z
		 M172.251,271.291c0.412,0.555,1.109,1.024,1.826,1.024c1.17,0,2.035-0.859,2.035-3.282c0-2.402-0.762-3.246-1.992-3.246
		c-0.678,0-1.414,0.352-1.869,0.802V271.291z"/>
	<path fill="#342F30" d="M181.658,274.081v-8.088l-1.15-0.245v-1.725h3.816v10.058H181.658z M181.576,259.918h2.713v2.439h-2.713
		V259.918z"/>
	<path fill="#342F30" d="M189.072,269.771c0,1.602,0.904,2.484,2.588,2.484c1.043,0,2.057-0.433,2.936-0.864l0.512,1.891
		c-0.84,0.449-2.176,1.006-3.775,1.006c-3.143,0-4.969-1.931-4.969-5.255c0-3.102,1.479-5.217,4.699-5.217
		c3.041,0,4.252,2.258,4.252,4.787v1.168H189.072z M190.937,265.786c-1.33,0-1.865,1.211-1.865,2.401h3.674
		C192.746,266.897,192.337,265.786,190.937,265.786"/>
	<path fill="#342F30" d="M203.06,266.259c-0.326-0.102-0.779-0.161-1.256-0.161c-0.717,0-1.352,0.308-1.805,0.681v7.303h-2.67
		v-10.058h1.869c0.102,0.47,0.207,0.906,0.289,1.353h0.082c0.305-0.717,1.211-1.539,2.398-1.539c0.539,0,0.924,0.082,1.15,0.146
		C203.097,264.742,203.097,265.501,203.06,266.259"/>
	<path fill="#342F30" d="M210.927,274.081v-5.975c0-1.518-0.58-2.235-1.807-2.235c-0.701,0-1.295,0.31-1.77,0.616v7.594h-2.688
		v-10.058h1.848l0.41,1.148c0.574-0.679,1.684-1.354,3.186-1.354c2.545,0,3.547,1.499,3.547,4.046v6.218H210.927z"/>
	<path fill="#342F30" d="M224.892,269.034c0,3.426-1.727,5.254-4.727,5.254c-3.012,0-4.721-1.808-4.721-5.254
		c0-2.959,1.646-5.218,4.721-5.218C223.21,263.816,224.892,266.075,224.892,269.034 M222.142,269.034
		c0-2.423-0.725-3.269-1.977-3.269c-1.246,0-1.943,0.864-1.943,3.269c0,2.341,0.635,3.28,1.943,3.28
		C221.48,272.314,222.142,271.436,222.142,269.034"/>
	<path fill="#342F30" d="M237.939,264.804c-0.172-0.576-0.254-1.087-0.254-1.848v-3.039h2.676v14.163h-2.18l-0.309-1.105
		c-0.408,0.613-1.379,1.313-2.668,1.313c-2.281,0-4.107-1.642-4.107-5.235c0-3.325,1.889-5.236,4.334-5.236
		C236.519,263.816,237.382,264.187,237.939,264.804 M237.685,266.322c-0.408-0.247-1.041-0.494-1.824-0.494
		c-1.271,0-2.074,0.866-2.074,3.206c0,2.401,0.764,3.303,2.037,3.303c0.67,0,1.352-0.325,1.861-0.862V266.322z"/>
	<path fill="#342F30" d="M245.105,269.771c0,1.602,0.902,2.484,2.584,2.484c1.049,0,2.055-0.433,2.941-0.864l0.512,1.891
		c-0.844,0.449-2.178,1.006-3.777,1.006c-3.143,0-4.969-1.931-4.969-5.255c0-3.102,1.477-5.217,4.701-5.217
		c3.037,0,4.248,2.258,4.248,4.787v1.168H245.105z M246.972,265.786c-1.334,0-1.867,1.211-1.867,2.401h3.674
		C248.779,266.897,248.371,265.786,246.972,265.786"/>
	<path fill="#342F30" d="M263.57,274.289c-3.902,0-5.975-2.626-5.975-7.246c0-4.254,2.053-7.125,5.975-7.125
		c1.887,0,3.592,0.409,4.721,1.169l-1.027,2.134c-0.715-0.531-1.973-0.944-3.408-0.944c-2.301,0-3.447,1.707-3.447,4.743
		c0,3.204,1.146,4.907,3.402,4.907c1.357,0,2.715-0.573,3.66-1.271l0.859,2.157C266.955,273.756,265.396,274.289,263.57,274.289"/>
	<path fill="#342F30" d="M270.183,274.081v-14.163h2.688v3.717c0,0.696-0.221,1.393-0.262,1.556c0.57-0.697,1.412-1.373,2.846-1.373
		c2.902,0,3.721,1.499,3.721,4.046v6.218h-2.729v-5.975c0-0.266-0.041-0.472-0.146-0.613c-0.082-1.13-0.658-1.622-1.658-1.622
		c-0.701,0-1.295,0.31-1.771,0.616v7.594H270.183z"/>
	<path fill="#342F30" d="M282.179,274.081v-8.088l-1.152-0.245v-1.725h3.818v10.058H282.179z M282.093,259.918h2.713v2.439h-2.713
		V259.918z"/>
	<path fill="#342F30" d="M287.294,271.413v-11.496h2.646v11.351c0,0.844,0.512,0.969,1.621,0.969v1.889c0,0-0.779,0.163-1.477,0.163
		C288.033,274.288,287.294,273.2,287.294,271.413"/>
	<path fill="#342F30" d="M295.634,269.771c0,1.602,0.902,2.484,2.582,2.484c1.049,0,2.055-0.433,2.938-0.864l0.512,1.891
		c-0.844,0.449-2.174,1.006-3.774,1.006c-3.143,0-4.971-1.931-4.971-5.255c0-3.102,1.479-5.217,4.703-5.217
		c3.04,0,4.25,2.258,4.25,4.787v1.168H295.634z M297.5,265.786c-1.336,0-1.865,1.211-1.865,2.401h3.674
		C299.309,266.897,298.896,265.786,297.5,265.786"/>
	<path fill="#342F30" d="M315.875,0H4.063h-5v5l0.007,283.532v5h5h311.811h5v-5L320.875,5V0H315.875z M4.063,5h125.242
		l0.006,283.532H4.07L4.063,5z M315.881,288.532H134.312L134.306,5h181.569L315.881,288.532z"/>
</g>
<g>
	<g>
		<g>
			<path fill="#342F30" d="M70.607,43.876c0.283-0.23,0.873-0.739,0.396-1.699c-0.229-0.451-0.827-0.494-0.567-0.549
				c3.203-0.752,4.915-5.427,4.816-7.22c1.646,1.519,5.341,1.952,8.021-0.326c1.731-1.667,2.565-6.047-0.396-8.242
				c-1.513-1.118-4.197-1.216-5.877,0.082c-0.531-0.894-1.454-1.53-2.442-1.536c-0.014-0.313,0.042-2.423-1.21-3.79
				c-1.602-1.745-6.104-1.877-7.737,0.033c-3.234-0.811-7.433,0.681-7.199,5.746c-2.272-0.897-3.573-0.912-4.774-0.803
				c-1.13,0.107-2.639,1.116-3.16,1.81c-0.24,0.309-0.508,0.742-0.705,1.117c-0.367,0.729-0.652,1.685-0.549,2.75
				c0.169,1.801,1.057,3.318,2.365,4.039c1.805,0.987,4.093,0.854,4.909,0.724c0.626-0.138,1.299-0.366,2.011-1.109
				c0.209-0.215,0.362-0.555,0.668-0.56c-0.009,0.457-0.172,2.885,2.536,4.038c0.012,0.116,0.051,0.228,0.078,0.401
				c0.856,3.341,3.105,2.928,3.141,3.16c-0.996,0.604-0.574,1.479-0.339,1.933c1.521-0.467,2.648-0.532,3.007-0.532
				S69.084,43.408,70.607,43.876z"/>
			<g>
				<polygon fill="none" points="67.244,47.239 65.222,53.925 58.017,53.925 58.038,53.933 63.876,58.112 61.645,64.718 
					67.244,60.466 72.85,64.718 70.615,58.112 76.455,53.929 76.469,53.925 69.268,53.925 				"/>
				<path fill="#342F30" d="M78.208,53.96c-0.01-3.349,2.251-5.938,2.28-5.971c0.246-0.277,0.273-0.537,0.256-0.719
					c-0.046-0.311-0.285-0.52-0.335-0.525c-0.646-0.437-2.095-1.324-2.095-1.324l-0.116-0.102h-0.125
					c-0.157,0-0.276,0.094-0.476,0.243c-0.401,0.31-1.146,0.886-2.45,0.886c-0.229,0-0.466-0.021-0.718-0.055
					c-0.68-0.095-1.822-0.677-1.822-0.677c-0.373-0.195-0.837-0.397-1.026-0.484L71.498,45.2c-1.867-0.774-3.455-0.838-3.899-0.838
					c-0.442,0-2.032,0.063-3.904,0.838l-0.086,0.032c-0.098,0.045-0.27,0.124-0.468,0.214l-1.138,0.539
					c-0.382,0.168-0.87,0.356-1.244,0.408c-0.244,0.033-0.479,0.055-0.716,0.055c-1.299,0-2.046-0.576-2.451-0.886
					c-0.199-0.149-0.323-0.243-0.473-0.243l-0.114,0.011l-0.067,0.046c-0.008,0.002-1.487,0.915-2.102,1.339
					c-0.098,0.044-0.334,0.243-0.381,0.56c-0.02,0.178,0.004,0.438,0.256,0.715c0.09,0.111,2.286,2.657,2.28,6.022
					c0.057,0.382,0.224,2.402-1.496,5.373c-0.08,0.151-1.973,3.611,0.097,6.645c0.01,0.029,1.559,2.854,6.084,2.854
					c0.37,0,3.711,0.062,4.862,2.197c0.049,0.085,0.586,0.938,0.799,1.36l0.262,0.512l0.254-0.512
					c0.218-0.416,0.745-1.264,0.824-1.381c1.131-2.115,4.473-2.177,4.844-2.177c4.463,0,6.057-2.81,6.057-2.81
					c2.121-3.109,0.136-6.671,0.122-6.688C77.983,56.414,78.149,54.394,78.208,53.96z M76.455,53.929l-5.84,4.184l2.234,6.605
					l-5.605-4.252l-5.6,4.252l2.231-6.605l-5.838-4.18l-0.021-0.008h7.205l2.022-6.686l2.023,6.686h7.201L76.455,53.929z"/>
				<g>
					<path fill="none" d="M47.702,86.154c3.176,3.267,7.793,1.455,7.793,1.455c0.734-0.109,1.118-2.374,1.307-4.131
						c-2.766-0.356-5.441-0.85-8.014-1.507C47.927,84.108,47.702,86.154,47.702,86.154z"/>
					<path fill="none" d="M46.855,72.33c-0.109-0.087-0.208-0.191-0.353-0.221c-0.403-0.07-0.686,0.273-1.15,0.177
						c-0.415-0.084-3.657-2.593-3.896-2.746c-0.705-0.477-1.85-1.129-2.365-1.848c-0.35-0.486-0.073-1.107-0.145-1.706
						c-0.043-0.437-0.567-1.468-1.463-1.763c-0.205,1.035-1.568,4.687-5.989,5.611c-0.604,2.371,0.34,6.987,0.881,7.556
						c0.411,0.066,0.79,0.279,1.126,0.549c0.037-0.913,0.289-1.515,0.289-1.515c1.229-2.515,4.12-1.729,4.12-1.729
						c1.012,0.308,1.224,1.204,1.224,1.204c0.392,1.991-1.259,2.16-1.259,2.16c-1.185,0.06-1.208-0.901-1.208-0.901
						c-0.146-0.929,1.172-0.976,1.172-0.976c-1.113-1.949-4.616,1.249-2.321,4.064c0.236,0.284,0.452,0.096,0.452,0.096
						c6.901-3.417,8.022-4.87,8.022-4.87c1.466-1.303,2.575-2.111,3.426-2.675C47.088,72.563,46.855,72.33,46.855,72.33z"/>
					<path fill="none" d="M79.521,44.775c0.118,0.095,0.258,0.205,0.415,0.331C79.782,44.984,79.636,44.87,79.521,44.775z"/>
					<path fill="none" d="M81.742,46.499c-0.229-0.171-0.486-0.368-0.744-0.566C81.266,46.14,81.51,46.324,81.742,46.499
						L81.742,46.499z"/>
					<path fill="none" d="M80.176,45.295c0.229,0.181,0.44,0.343,0.692,0.538C80.63,45.649,80.396,45.467,80.176,45.295z"/>
					<path fill="none" d="M46.336,84.962c0.217-0.264,0.5-1.476,0.5-1.476c0.169-0.685,0.415-1.247,0.656-1.815
						c-0.751-0.211-1.473-0.47-2.206-0.707C45.364,83.223,46.336,84.962,46.336,84.962z"/>
					<path fill="none" d="M78.896,83.484c0.188,1.755,0.572,4.016,1.307,4.125c0,0,4.615,1.812,7.791-1.455
						c0,0-0.224-2.042-1.082-4.175C84.341,82.635,81.663,83.128,78.896,83.484z"/>
					<path fill="none" d="M88.856,83.486c0,0,0.287,1.212,0.504,1.476c0,0,0.968-1.731,1.047-3.984
						c-0.732,0.238-1.454,0.492-2.202,0.7C88.443,82.245,88.688,82.806,88.856,83.486z"/>
					<path fill="none" d="M54.502,77.162c-1.487,0.024-2.656,0.61-3.573,1.47c1.733,0.4,3.765,0.768,6.009,1.085
						C56.563,77.136,54.502,77.162,54.502,77.162z"/>
					<path fill="none" d="M85.96,78.346c1.386-0.347,2.635-0.691,3.612-1c-0.204-0.392-0.41-0.783-0.716-1.167
						c0,0-3.911-4.746-10.932-2.078c-0.146,0.048,0.31,1.181,2.239,1.606C80.413,75.762,83.445,75.963,85.96,78.346z"/>
					<path fill="none" d="M81.199,77.162c0,0-2.066-0.029-2.442,2.559c2.247-0.315,4.283-0.684,6.019-1.081
						C83.859,77.776,82.69,77.187,81.199,77.162z"/>
					<path fill="none" d="M61.498,75.525c-0.499-0.685-1.23-0.708-1.23-0.708c-1.016-0.01-1.223,2.352-1.518,5.148
						c2.15,0.248,4.55,0.396,7.088,0.463C64.752,78.209,62.376,76.746,61.498,75.525z"/>
					<path fill="none" d="M46.836,76.179c-0.303,0.38-0.505,0.77-0.71,1.157c0.978,0.309,2.229,0.655,3.616,1.003
						c2.513-2.376,5.539-2.577,5.791-2.632c1.931-0.426,2.377-1.559,2.239-1.606C50.752,71.433,46.836,76.179,46.836,76.179z"/>
					<path fill="none" d="M75.43,74.817c0,0-0.732,0.023-1.229,0.708c-0.884,1.221-3.259,2.684-4.344,4.903
						c2.541-0.064,4.938-0.212,7.09-0.461C76.653,77.171,76.447,74.808,75.43,74.817z"/>
					<path fill="#342F30" d="M117.27,81.71c-0.732-0.888-2.673-0.446-2.673-0.446c1.045-3.105-1.825-3.932-1.825-3.932
						c-1.027-0.271-1.702-0.079-2.142,0.22c0,0-0.02,0.012-0.031,0.022c-0.008,0.009-0.018,0.012-0.018,0.021
						c-0.077,0.054-0.142,0.101-0.205,0.166c-0.258,0.271-0.419,0.637-0.419,1.035c0,0.82,0.673,1.491,1.496,1.491
						c0.318,0,0.613-0.103,0.857-0.27c0.295-0.211,0.512-0.525,0.591-0.886c0.402,0.254,0.55,0.696,0.55,0.696
						c0.837,2.647-2.14,3.597-2.14,3.597c-6.572,1.974-10.593-1.42-10.593-1.42l1.149-0.614c0.396-0.175,0.758-0.226,1.041-0.226
						c-0.012,0.053-0.021,0.125-0.021,0.194c0,0.706,0.59,1.288,1.305,1.288c0.716,0,1.303-0.582,1.303-1.288
						c-0.009-0.537-0.265-0.799-0.265-0.799c-0.767-1.159-3.421-0.392-3.421-0.392c0.883-2.18,0.094-3.744,0.094-3.744
						c-1.226-2.515-4.122-1.729-4.122-1.729c-1.011,0.308-1.22,1.204-1.22,1.204c-0.392,1.991,1.259,2.16,1.259,2.16
						c1.188,0.06,1.2-0.901,1.2-0.901c0.153-0.929-1.16-0.976-1.16-0.976c1.108-1.949,4.604,1.249,2.318,4.064
						c-0.238,0.284-0.457,0.096-0.457,0.096c-4.093-2.027-6.124-3.35-7.118-4.102c-0.097-1.113-1.072-1.678-0.886-1.975
						c0.161-0.065,0.739,0.224,1.063-0.261c0.118-0.176,0.386-1.939,0.604-3.188c3.622,1.654,6.712,1.15,7.335,0.95
						c0.316-0.13,0.573-0.358,0.579-0.833c0.058-1.379-3.517-9.489-3.614-12.353c1.688,0.837,2.73-1.769,3.035-2.563
						c2.269,1.035,3.05,22.084,4.796,22.793c0.874,0.354,1.218-1.078,1.298-1.344c2.806-9.384,2.904-18.52,2.719-21.583
						c-0.28-4.801-0.668-9.097-1.825-13.049c-0.71-2.433-2.086-7.398-5.297-8.075c-1.503-0.319-2.643,1.082-2.616,2.341
						c0.023,1.09,0.776,1.618,0.442,2.688c-0.401,0.699-0.805,1.464-1.002,2.247c-0.192,0.781,0.502,1.102,0.277,1.933
						c-1.015-0.154-1.522,0.736-3.12,0.329c1.041-0.483,1.055-3.45-0.221-3.958c-0.19-0.079-0.406-0.106-0.442-0.279
						c0,0,0.413-0.437,0.618-0.864c0.731-1.501,0.728-2.823,0.145-3.822c0.528,0.045,1.079-0.926,1.152-1.699l0.011,0.007
						c0.002-0.009,0.002-0.046,0.002-0.062v-0.005c0.013-0.203-0.023-0.883,0.284-1.516c0.098-0.207,0-0.445-0.178-0.537
						c-0.184-0.085-0.423-0.007-0.527,0.202c-0.314,0.665-1.066,0.295-0.748-0.372c0.096-0.211,0-0.442-0.181-0.532
						c-0.177-0.083-0.419-0.019-0.52,0.194c-0.303,0.639-1.032,0.281-0.731-0.358c0.097-0.206,0.004-0.444-0.173-0.529
						c-0.174-0.083-0.42-0.016-0.524,0.198c-0.311,0.657-1.069,0.294-0.755-0.361c0.099-0.221,0-0.454-0.177-0.543
						c-0.178-0.076-0.415-0.01-0.52,0.198c-0.335,0.697-0.567,0.988-0.917,1.268c-0.711,0.126-0.522,0.942-0.438,1.495
						c-1.328-0.287-2.329,0.725-2.369,1.633h-0.149c-1.098,0.026-2.148,0.595-2.065,1.605c0.039,0.575,0.712,1.289,0.968,1.299
						c0.118-0.039-0.06-0.609,0.512-0.646c0.52-0.029,1.295,0.415,1.39,0.909c0.113,0.563-0.349,1.921,1.443,2.121
						c0,0-0.014,0.275-0.039,0.566c-0.642-0.043-0.809-0.078-1.448,0.021c-1.132,0.181-2.684,0.818-3.063,1.941
						c-0.073,0.188-0.104,0.581-0.073,0.851c0.023,0.23,0.237,0.517,0.209,0.799c-0.021,0.136-0.26,0.42-0.354,0.507
						c-0.471,0.497-1.347,0.967-2.121,1.006c-0.856,0.043-1.69-0.509-2.025-0.97c-1.14-1.531,0.335-4.181,0.313-5.169
						c-0.066-2.629-3.386-1.063-4.7-0.378c-1.566,0.824-2.815,2.148-3.866,3.451c-0.578,0.714-1.228,1.613-1.547,2.373
						c-0.059,0.14-0.185,0.164-0.322,0.159c0.673,0.303,1.859,0.746,2.798,0.758c0,0,1.834,0.249,3.147-0.847
						c0,0,0.188-0.163,0.453-0.163c0.189,0,0.356,0.081,0.502,0.215c0.014,0.018,0.181,0.153,0.378,0.311
						c0.115,0.095,0.262,0.209,0.415,0.331c0.079,0.061,0.155,0.122,0.24,0.188c0.221,0.172,0.454,0.354,0.692,0.538
						c0.043,0.033,0.085,0.066,0.13,0.1c0.258,0.198,0.516,0.396,0.744,0.566l0,0c0.269,0.203,0.526,0.394,0.676,0.494l0.013,0.012
						c0.027,0.021,0.092,0.085,0.114,0.185c0.007,0.099-0.04,0.217-0.128,0.327c-0.007,0.006-0.145,0.159-0.354,0.425
						c-0.438,0.557-1.183,1.651-1.749,2.991c0.619,1.078,1.66,2.364,3.153,2.38c1.192,0.011,1.682-0.584,1.857-1.349
						c0.022,0.018,0.085,0.096,0.096,0.1c0.143-0.129,0.801,3.43,1.668,4.396c-0.813,0.378-2.07,1.655-1.388,5.167
						c-0.67-0.535-1.902-1.468-2.491-2.077c-0.354-0.729-1.046-2.444-3.031-2.609c0.287,0.882,0.704,1.873,1.344,2.975
						c0.012,0.03,1.224,2.261,0.846,4.793c0.833-0.854,0.705-3.195,0.705-3.195c0.029-0.03,0.149-0.064,0.185-0.078
						c0.169-0.012,1.004,1.615,2.443,1.956c1.878,3.209,3.988,5.245,6.027,6.533c-0.038,0.776,0.057,2.628-0.443,2.628
						c-1.604,0.355-3.085-0.727-4.5-0.653c-0.12-0.058-0.245-0.115-0.245-0.115c-6.086-2.931-14.108,3.361-15.446,4.582
						c-0.704,0.648-1.519-0.236-1.519-0.236c-0.48-0.606-1.11-0.88-1.728-0.81c-0.612-0.07-1.248,0.203-1.724,0.81
						c0,0-0.818,0.885-1.523,0.236c-1.265-1.157-8.535-6.787-14.479-4.866c-0.016-0.325-0.816-0.49-1.041-0.574
						c-0.473-0.134-0.885-0.507-1.181-0.654c-0.647-0.324-1.699-0.124-2.436-0.21c-0.287-0.043-0.688-0.192-0.944-0.347
						c-0.952-0.586-2.038-1.302-2.646-2.16c-0.096-0.14-0.333-0.464-0.381-0.52c-0.295-0.37-0.441-0.646-0.667-1.259
						c-0.324-1.174,0.182-2.433,0.353-3.621c0.128-0.88,0.099-0.937,0.177-1.881c3.774-1.297,5.316-4.126,6.196-5.635
						c0.084-0.118,0.318-0.599,0.318-0.599c0.167,0.024,0.335,0.037,0.516,0.046c1.509,0.01,2.524-0.833,4.176-0.633
						c0,0.092,0.222,0.785,1.292,1.225c0.032,1.082,0.11,1.976,0.521,2.815c0.091,0.146,0.203,0.27,0.285,0.392
						c0.707-1.739,0.894-3.095,0.913-3.912c-0.051-0.07-0.096-0.171-0.125-0.326c-0.354-1.838-1.211-2.342-2.018-2.806
						c-0.396-0.216-0.838-0.283-1.218-0.559c-0.587-0.403-1.208-0.835-1.598-1.59c0,0,0.192-0.181,0.397-0.44
						c1.054-1.104,1.582-2.728,1.968-4.507c0.807-1.102,3.046-0.671,3.898-0.515c0.22,0.025,0.591,0.109,0.764,0.244
						c0.24,0.165,0.296,0.546,0.631,0.689c0.354,0.146,0.754,0.038,1.183,0c0.157,0.18,0.242,0.428,0.355,0.652
						c0,0,0.116,0.208,0.339,0.442c1.047-0.021,2.454-0.575,3.043-0.874c-0.07-0.045-0.131-0.09-0.163-0.138
						c-0.472-0.601-1.177-1.261-1.837-1.367c-0.835-0.138-1.01-0.884-1.809-1.043c-0.203-0.056-0.911-0.161-1.151-0.075
						c-1.767,0.23-3.015-0.44-4.667-0.558c-1.57-0.111-1.619,0.962-2.192,1.847c-0.212,0.333-0.464,0.725-0.724,0.973
						c-0.433,0.419-0.937,0.434-1.462,0.832l-0.242-0.653c-0.146-0.543-0.348-1.106-0.704-1.639
						c-0.854-1.34-1.826-2.375-3.723-2.813c-0.362-0.147-0.417-0.169-0.657-0.361c-0.31-0.24-0.089-0.525,0-0.555
						c0.539-0.312,1.472-0.201,2.086-0.484c1.512-0.704,0.976-1.985,0.386-2.09c-0.76-0.142-2.135-0.504-2.404-0.663
						c-0.366-0.23-1.003-1.383-1.603-1.666c-0.662-0.18-0.435-1.264-1.047-1.5c-0.264-0.045-0.653,0.089-1.082,0.303
						c-0.025-0.226-0.188-1.458-0.866-1.861c-0.507-0.289-0.692,0.162-0.669,0.457c0.028,0.262,0.744,0.624,0.878,1.786
						c-0.122,0.079-0.239,0.146-0.365,0.234c-0.097-0.479-0.312-1.222-0.808-1.517c-0.508-0.292-0.692,0.16-0.666,0.453
						c0.023,0.251,0.653,0.577,0.852,1.56c-0.151,0.124-0.292,0.25-0.433,0.38c-1.016-0.28-1.289-0.969-1.543-1.016
						c-0.285-0.063-0.75,0.083-0.514,0.617c0.248,0.536,1.01,0.829,1.474,0.967c-0.104,0.112-0.19,0.223-0.281,0.332
						c-1.177-0.235-1.466-1.003-1.728-1.063c-0.289-0.053-0.757,0.091-0.518,0.62c0.343,0.75,1.677,1.037,1.803,1.063
						c-0.191,0.319-0.315,0.611-0.268,0.82c-0.917-0.105-2.543,0.386-2.235,1.468c0.304,0.219,1.385-0.665,2.381-0.172
						c0.657,1.019,1.71,1.062,1.947,1.25c0.366,0.292,0.425,0.815,0.595,1.291c0.293,0.882,0.911,1.588,1.425,2.369
						c0.563,0.855,1.151,1.755,1.741,2.503c0.072,0.202,0.136,0.415,0.101,0.732c-0.674,1.07-2.688,2.321-3.515,3.095
						c-0.834,0.785-8.721,6.786-9.712,9.403c-0.218,0.586-0.347,1.338-0.313,2.119c-0.482,0.256-1.539,0.675-1.872,0.202
						c-0.609-0.846,0.579-1.487,0.319-2.306c-0.124-0.315-0.583-0.525-0.874-0.315c-1.964,1.409-0.95,3.904,0.291,4.471
						c1.366,0.567,1.563-0.904,2.621-0.309c0.252,0.144,2.755,2.379,2.334,4.146c-0.025,0.091-0.122,0.347-0.172,0.413
						c-0.549,0.681-1.463,1.206-2.087,1.846c-1.303,0.825,1.235,6.015,1.024,8.678c-0.147,1.012,0.843,0.893,1.446,2.479
						c-0.617,0.02-1.224,0.172-1.53,0.632c0,0-0.261,0.262-0.261,0.799c0,0.706,0.579,1.288,1.298,1.288
						c0.718,0,1.302-0.582,1.302-1.288c0-0.069-0.003-0.142-0.014-0.194c0.283,0,0.649,0.051,1.043,0.226l1.147,0.614
						c0,0-4.021,3.394-10.588,1.42c0,0-2.979-0.949-2.145-3.597c0,0,0.146-0.442,0.551-0.696c0.079,0.36,0.296,0.675,0.59,0.886
						c0.245,0.167,0.54,0.27,0.858,0.27c0.82,0,1.487-0.671,1.487-1.491c0-0.398-0.153-0.764-0.411-1.035
						c-0.064-0.065-0.128-0.112-0.207-0.166c0-0.009-0.008-0.012-0.008-0.012c-0.023-0.02-0.03-0.023-0.03-0.023
						c-0.449-0.307-1.124-0.499-2.153-0.228c0,0-2.867,0.826-1.825,3.932c0,0-1.937-0.441-2.669,0.446c0,0-0.252,0.281-0.23,0.733
						v0.017v0.016c0.018,0.183,0.073,0.393,0.207,0.633c0.203,0.287,0.539,0.484,0.923,0.484c0.352,0,0.663-0.165,0.875-0.417
						c0-0.013,0.008-0.013,0.008-0.013c0.079-0.1,0.317-0.237,0.666,0.127c4.355,4.541,11.459,2.668,15.398-0.375
						c0,0,2.182-2.197,4.616-3.543c0.947,0.407,1.953,0.711,2.931,1.063c-0.07,1.413,0.223,3.436,1.799,5.791
						c0,0-1.109,2.054-2.986,0.925c0,0-1.386-1.067-0.207-2.354c0,0,0.789-0.657,1.13,0.165c-0.403,0.023-0.729,0.353-0.729,0.764
						c0,0.425,0.336,0.76,0.758,0.76c0.413,0,0.737-0.318,0.76-0.717c0.037-0.309,0.055-1.098-0.622-1.668
						c0,0-0.599-0.649-1.728-0.469c-1.653,0.258-2.588,3.715,0.677,5.147c0,0,2.565,1.169,3.889-0.745c0,0-0.021-0.277,0.476,0.198
						c2.715,2.633,8.779,1.869,11.188,0.079c0,0,0.61-0.386,1.277-0.702c0.031,1.013,0.857,1.843,1.889,1.843
						c1.039,0,1.885-0.854,1.885-1.895c0-0.932-0.671-1.7-1.559-1.859c-0.041-0.015-1.245-0.356-3.004,0.71
						c0,0-1.859,1.165-1.752,0.986c0.626-0.982,1.014-2.311,1.283-3.731c2.643,0.291,5.358,0.484,8.168,0.545
						c-0.033,0.817-0.146,1.816-0.463,2.58c0,0-0.991,0.411-1.015,1.11c0,0-0.11,0.511,0.771,1.22c0,0,0.643,0.712,0.83,1.264
						c0,0,0.051,0.769,1.109,0.769c0.079,0,0.142-0.01,0.201-0.022c0.066,0.013,0.134,0.022,0.204,0.022
						c1.059,0,1.11-0.769,1.11-0.769c0.188-0.552,0.828-1.264,0.828-1.264c0.881-0.709,0.771-1.22,0.771-1.22
						c-0.017-0.699-1.018-1.11-1.018-1.11c-0.313-0.764-0.426-1.763-0.459-2.578c2.812-0.061,5.526-0.251,8.169-0.541
						c0.27,1.419,0.655,2.745,1.283,3.726c0.112,0.179-1.747-0.986-1.747-0.986c-1.761-1.066-2.976-0.725-3.015-0.71
						c-0.886,0.159-1.553,0.928-1.553,1.859c0,1.04,0.845,1.895,1.885,1.895c1.029,0,1.859-0.83,1.886-1.843
						c0.67,0.316,1.28,0.702,1.28,0.702c2.4,1.79,8.473,2.554,11.189-0.079c0.495-0.476,0.473-0.198,0.473-0.198
						c1.324,1.914,3.894,0.745,3.894,0.745c3.259-1.433,2.322-4.89,0.678-5.147c-1.132-0.181-1.736,0.469-1.736,0.469
						c-0.671,0.57-0.658,1.359-0.617,1.668c0.02,0.398,0.349,0.717,0.756,0.717c0.42,0,0.761-0.335,0.761-0.76
						c0-0.411-0.326-0.74-0.726-0.764c0.338-0.822,1.127-0.165,1.127-0.165c1.18,1.286-0.21,2.354-0.21,2.354
						c-1.873,1.129-2.985-0.925-2.985-0.925c1.572-2.348,1.869-4.366,1.801-5.779c0.984-0.353,1.993-0.658,2.943-1.068
						c2.43,1.348,4.604,3.537,4.604,3.537c3.937,3.043,11.038,4.916,15.398,0.375c0.349-0.364,0.587-0.227,0.663-0.127
						c0,0,0.01,0,0.01,0.013c0.209,0.252,0.523,0.417,0.875,0.417c0.384,0,0.715-0.197,0.924-0.484
						c0.133-0.24,0.187-0.45,0.208-0.633v-0.009v-0.023C117.519,81.991,117.27,81.71,117.27,81.71z M35.971,80.343
						c0,0-0.216,0.188-0.452-0.096c-2.295-2.815,1.208-6.014,2.321-4.064c0,0-1.317,0.047-1.172,0.976c0,0,0.023,0.961,1.208,0.901
						c0,0,1.65-0.169,1.259-2.16c0,0-0.212-0.896-1.224-1.204c0,0-2.891-0.785-4.12,1.729c0,0-0.252,0.602-0.289,1.515
						c-0.336-0.27-0.715-0.482-1.126-0.549c-0.541-0.568-1.485-5.185-0.881-7.556c4.421-0.925,5.784-4.576,5.989-5.611
						c0.896,0.295,1.42,1.326,1.463,1.763c0.071,0.599-0.205,1.22,0.145,1.706c0.516,0.719,1.66,1.371,2.365,1.848
						c0.238,0.153,3.48,2.662,3.896,2.746c0.465,0.097,0.747-0.247,1.15-0.177c0.145,0.029,0.243,0.134,0.353,0.221
						c0,0,0.232,0.233,0.563,0.468c-0.851,0.563-1.96,1.372-3.426,2.675C43.993,75.473,42.872,76.926,35.971,80.343z M46.836,83.486
						c0,0-0.283,1.212-0.5,1.476c0,0-0.972-1.739-1.05-3.998c0.733,0.237,1.455,0.496,2.206,0.707
						C47.251,82.239,47.005,82.802,46.836,83.486z M55.495,87.609c0,0-4.617,1.812-7.793-1.455c0,0,0.225-2.046,1.086-4.183
						c2.572,0.657,5.248,1.15,8.014,1.507C56.613,85.235,56.229,87.5,55.495,87.609z M50.929,78.632
						c0.917-0.859,2.086-1.445,3.573-1.47c0,0,2.061-0.026,2.436,2.555C54.693,79.399,52.662,79.032,50.929,78.632z M55.533,75.707
						c-0.252,0.055-3.278,0.256-5.791,2.632c-1.387-0.348-2.639-0.694-3.616-1.003c0.205-0.388,0.407-0.777,0.71-1.157
						c0,0,3.916-4.746,10.937-2.078C57.91,74.148,57.464,75.281,55.533,75.707z M58.75,79.966c0.295-2.797,0.502-5.158,1.518-5.148
						c0,0,0.731,0.023,1.23,0.708c0.878,1.221,3.254,2.684,4.34,4.903C63.3,80.361,60.9,80.214,58.75,79.966z M69.856,80.429
						c1.085-2.22,3.46-3.683,4.344-4.903c0.497-0.685,1.229-0.708,1.229-0.708c1.018-0.01,1.224,2.354,1.517,5.15
						C74.794,80.217,72.397,80.364,69.856,80.429z M77.925,74.101c7.021-2.668,10.932,2.078,10.932,2.078
						c0.306,0.384,0.512,0.775,0.716,1.167c-0.978,0.309-2.227,0.653-3.612,1c-2.515-2.383-5.547-2.584-5.796-2.639
						C78.234,75.281,77.779,74.148,77.925,74.101z M81.199,77.162c1.491,0.024,2.66,0.614,3.576,1.478
						c-1.735,0.397-3.771,0.766-6.019,1.081C79.133,77.133,81.199,77.162,81.199,77.162z M80.203,87.609
						c-0.734-0.109-1.118-2.37-1.307-4.125c2.767-0.356,5.444-0.85,8.016-1.505c0.858,2.133,1.082,4.175,1.082,4.175
						C84.818,89.421,80.203,87.609,80.203,87.609z M89.36,84.962c-0.217-0.264-0.504-1.476-0.504-1.476
						c-0.169-0.681-0.413-1.241-0.651-1.809c0.748-0.208,1.47-0.462,2.202-0.7C90.328,83.23,89.36,84.962,89.36,84.962z"/>
				</g>
			</g>
		</g>
	</g>
</g>
<g>
	<path fill="#342F30" d="M161.376,51.32l-0.365-14.82h-0.104c-0.313,1.872-0.623,3.224-0.857,4.238l-2.496,10.582h-5.018
		l-2.393-10.582c-0.234-1.015-0.547-2.366-0.885-4.238h-0.104l-0.234,14.82h-3.119l0.676-17.551h5.85c0,0,1.924,8.841,2.938,14.509
		h0.078c1.17-5.643,3.459-14.509,3.459-14.509h5.746l0.676,17.551H161.376z"/>
	<path fill="#342F30" d="M169.201,51.32V41.023l-1.482-0.312V38.58h4.863v12.74H169.201z M169.097,33.38h3.432v3.094h-3.432V33.38z"
		/>
	<path fill="#342F30" d="M183.58,51.32v-7.566c0-1.924-0.729-2.834-2.289-2.834c-0.883,0-1.637,0.39-2.236,0.78v9.62h-3.406V38.58
		h2.342l0.52,1.456c0.729-0.858,2.131-1.716,4.029-1.716c3.225,0,4.498,1.897,4.498,5.122v7.878H183.58z"/>
	<path fill="#342F30" d="M190.859,51.32V41.023l-1.482-0.312V38.58h4.861v12.74H190.859z M190.755,33.38h3.432v3.094h-3.432V33.38z"
		/>
	<path fill="#342F30" d="M200.271,41.934c0,1.977,5.512,1.379,5.512,5.539c0,2.313-1.717,4.107-5.018,4.107
		c-1.535,0-2.965-0.441-3.822-0.936l0.701-2.366c0.598,0.416,1.846,0.884,3.016,0.884c1.119,0,1.873-0.624,1.873-1.404
		c0-2.288-5.436-1.533-5.436-5.876c0-1.872,1.432-3.562,4.863-3.562c1.326,0,2.703,0.26,3.588,0.623l-0.469,2.471
		c-0.857-0.391-1.949-0.65-3.066-0.65C200.841,40.764,200.271,41.206,200.271,41.934z"/>
	<path fill="#342F30" d="M213.166,51.58c-2.262,0-3.744-1.065-3.744-4.264v-6.318h-1.896V38.58h1.896v-2.21l3.355-1.093v3.303h3.406
		v2.418h-3.406v6.24c0,0.884,0.441,1.456,1.352,1.456c0.701,0,1.43-0.208,1.949-0.468l0.521,2.496
		C215.845,51.164,214.519,51.58,213.166,51.58z"/>
	<path fill="#342F30" d="M221.044,45.86c0,2.028,1.145,3.146,3.275,3.146c1.301,0,2.627-0.494,3.744-1.065l0.65,2.392
		c-1.066,0.572-2.809,1.248-4.811,1.248c-3.926,0-6.266-2.443-6.266-6.656c0-3.926,1.898-6.604,5.98-6.604
		c3.848,0,5.355,2.859,5.355,6.058v1.482H221.044z M223.437,40.816c-1.691,0-2.393,1.533-2.393,3.042h4.654
		C225.699,42.22,225.205,40.816,223.437,40.816z"/>
	<path fill="#342F30" d="M238.775,41.414c-0.416-0.13-1.014-0.208-1.586-0.208c-0.91,0-1.715,0.39-2.287,0.858v9.256h-3.381V38.58
		h2.367l0.363,1.716h0.078c0.391-0.91,1.533-1.95,3.043-1.95c0.676,0,1.195,0.104,1.48,0.182L238.775,41.414z"/>
	<path fill="#342F30" d="M241.869,51.32V41.023l-1.482-0.312V38.58h4.863v12.74H241.869z M241.765,33.38h3.432v3.094h-3.432V33.38z"
		/>
	<path fill="#342F30" d="M259.783,44.924c0,4.343-2.184,6.656-5.98,6.656c-3.822,0-5.979-2.288-5.979-6.656
		c0-3.744,2.08-6.604,5.979-6.604C257.652,38.32,259.783,41.18,259.783,44.924z M256.298,44.924c0-3.068-0.91-4.134-2.496-4.134
		s-2.469,1.092-2.469,4.134c0,2.965,0.805,4.16,2.469,4.16S256.298,47.966,256.298,44.924z"/>
	<path fill="#342F30" d="M276.292,39.568c-0.207-0.729-0.313-1.379-0.313-2.341V33.38h3.381v17.94h-2.756l-0.391-1.404
		c-0.52,0.78-1.742,1.664-3.379,1.664c-2.887,0-5.201-2.08-5.201-6.63c0-4.212,2.393-6.63,5.486-6.63
		C274.5,38.32,275.591,38.788,276.292,39.568z M275.98,41.492c-0.52-0.313-1.326-0.624-2.313-0.624
		c-1.613,0-2.627,1.092-2.627,4.056c0,3.042,0.963,4.187,2.574,4.187c0.857,0,1.717-0.416,2.365-1.092V41.492z"/>
	<path fill="#342F30" d="M285.341,45.86c0,2.028,1.143,3.146,3.275,3.146c1.301,0,2.625-0.494,3.744-1.065l0.65,2.392
		c-1.066,0.572-2.809,1.248-4.811,1.248c-3.926,0-6.266-2.443-6.266-6.656c0-3.926,1.896-6.604,5.979-6.604
		c3.85,0,5.357,2.859,5.357,6.058v1.482H285.341z M287.732,40.816c-1.689,0-2.391,1.533-2.391,3.042h4.652
		C289.994,42.22,289.501,40.816,287.732,40.816z"/>
	<path fill="#342F30" d="M151.183,76.08c-2.34,0-4.316-0.832-5.719-1.872l1.299-2.678c1.014,0.884,2.861,1.69,4.473,1.69
		s2.703-0.988,2.703-2.314c0-3.719-8.111-1.872-8.111-8.061c0-2.652,2.08-4.836,6.188-4.836c2.055,0,3.797,0.441,5.227,1.196
		l-1.145,2.729c-0.961-0.572-2.521-0.962-4.133-0.962c-1.586,0-2.627,0.521-2.627,1.82c0,3.146,8.164,1.924,8.164,7.904
		C157.501,73.48,155.187,76.08,151.183,76.08z"/>
	<path fill="#342F30" d="M167.953,75.82l-0.467-1.508c-0.65,0.884-1.924,1.768-3.719,1.768c-2.549,0-4.264-1.638-4.264-4.082
		c0-2.366,1.742-3.77,4.811-3.77h2.678v-0.65c0-1.639-0.936-2.158-2.236-2.158c-1.508,0-2.781,0.39-3.822,0.858l-0.857-2.419
		c1.273-0.546,3.016-1.039,5.018-1.039c3.613,0,5.174,1.664,5.174,4.914v8.086H167.953z M166.992,70.256h-2.105
		c-1.404,0-2.055,0.676-2.055,1.639c0,1.17,0.623,1.872,1.898,1.872c0.805,0,1.637-0.364,2.262-0.858V70.256z"/>
	<path fill="#342F30" d="M173.257,72.44V57.88h3.354v14.378c0,1.066,0.65,1.223,2.055,1.223v2.392c0,0-0.988,0.208-1.873,0.208
		C174.193,76.08,173.257,74.702,173.257,72.44z"/>
	<path fill="#342F30" d="M189.767,75.82l-0.52-1.561c-0.6,0.78-1.951,1.82-3.979,1.82c-3.172,0-4.629-1.768-4.629-5.278V63.08h3.381
		v7.748c0,1.95,0.701,2.652,2.236,2.652c0.883,0,1.689-0.338,2.287-0.754V63.08h3.459v12.74H189.767z"/>
	<path fill="#342F30" d="M203.078,64.068c-0.207-0.729-0.311-1.379-0.311-2.341V57.88h3.379v17.94h-2.756L203,74.416
		c-0.52,0.78-1.742,1.664-3.379,1.664c-2.887,0-5.201-2.08-5.201-6.63c0-4.212,2.393-6.63,5.486-6.63
		C201.285,62.82,202.376,63.288,203.078,64.068z M202.767,65.992c-0.521-0.313-1.326-0.624-2.314-0.624
		c-1.613,0-2.627,1.092-2.627,4.056c0,3.042,0.963,4.187,2.574,4.187c0.857,0,1.717-0.416,2.367-1.092V65.992z"/>
</g>
<g>
</g>
<g>
</g>
<g>
</g>
<g>
</g>
<g>
</g>
<g>
</g>
</svg>
